<svg width="27" height="26" viewBox="0 0 27 26" fill="none" xmlns="http://www.w3.org/2000/svg">
<path d="M1.50002 12.5556L4.16668 10.0988M4.16668 10.0988L13.5 1.5L22.8333 10.0988M4.16668 10.0988V22.3827C4.16668 22.7085 4.30716 23.021 4.55721 23.2513C4.80726 23.4817 5.14639 23.6111 5.50002 23.6111H9.50002M22.8333 10.0988L25.5 12.5556M22.8333 10.0988V22.3827C22.8333 22.7085 22.6929 23.021 22.4428 23.2513C22.1928 23.4817 21.8536 23.6111 21.5 23.6111H17.5M9.50002 23.6111C9.85364 23.6111 10.1928 23.4817 10.4428 23.2513C10.6929 23.021 10.8333 22.7085 10.8333 22.3827V17.4691C10.8333 17.1433 10.9738 16.8309 11.2239 16.6005C11.4739 16.3702 11.8131 16.2407 12.1667 16.2407H14.8333C15.187 16.2407 15.5261 16.3702 15.7762 16.6005C16.0262 16.8309 16.1667 17.1433 16.1667 17.4691V22.3827C16.1667 22.7085 16.3072 23.021 16.5572 23.2513C16.8073 23.4817 17.1464 23.6111 17.5 23.6111M9.50002 23.6111H17.5" stroke="white" stroke-width="3" stroke-linecap="round" stroke-linejoin="round"/>
</svg>
