<svg width="89" height="81" viewBox="0 0 89 81" fill="none" xmlns="http://www.w3.org/2000/svg">
    <rect width="89" height="80.3592" rx="11" fill="url(#paint0_linear_32_135)"/>
    <path d="M22.466 24.1942V50.1165C22.466 51.4915 22.992 52.8102 23.9283 53.7825C24.8645 54.7547 26.1344 55.301 27.4585 55.301H62.4056C63.7297 55.301 64.9995 54.7547 65.9358 53.7825C66.8721 52.8102 67.3981 51.4915 67.3981 50.1165V29.3786C67.3981 28.0036 66.8721 26.6849 65.9358 25.7127C64.9995 24.7404 63.7297 24.1942 62.4056 24.1942H47.4283L42.4358 19.0097H27.4585C26.1344 19.0097 24.8645 19.5559 23.9283 20.5282C22.992 21.5005 22.466 22.8192 22.466 24.1942Z" stroke="white" stroke-width="5" stroke-linecap="round" stroke-linejoin="round"/>
    <defs>
    <linearGradient id="paint0_linear_32_135" x1="0" y1="40.1796" x2="89" y2="40.1796" gradientUnits="userSpaceOnUse">
    <stop offset="0.211538" stop-color="#0E2461"/>
    <stop offset="0.826923" stop-color="#1D49C7"/>
    </linearGradient>
    </defs>
</svg>
