<svg width="18" height="20" viewBox="0 0 18 20" fill="none" xmlns="http://www.w3.org/2000/svg">
<path d="M15.375 4.83333L14.5441 16.4694C14.5097 16.953 14.2933 17.4055 13.9386 17.7359C13.5838 18.0663 13.117 18.25 12.6323 18.25H4.70108C4.2163 18.25 3.74952 18.0663 3.39476 17.7359C3.04001 17.4055 2.82363 16.953 2.78921 16.4694L1.95833 4.83333M6.75 8.66667V14.4167M10.5833 8.66667V14.4167M11.5417 4.83333V1.95833C11.5417 1.70417 11.4407 1.46041 11.261 1.28069C11.0813 1.10097 10.8375 1 10.5833 1H6.75C6.49583 1 6.25208 1.10097 6.07236 1.28069C5.89263 1.46041 5.79167 1.70417 5.79167 1.95833V4.83333M1 4.83333H16.3333" stroke="white" stroke-width="2" stroke-linecap="round" stroke-linejoin="round"/>
</svg>
