<svg width="19" height="19" viewBox="0 0 19 19" fill="none" xmlns="http://www.w3.org/2000/svg">
<path d="M17.7261 0.673409C17.2948 0.242225 16.7099 0 16.1 0C15.4901 0 14.9052 0.242225 14.4739 0.673409L5.75 9.39731V12.6495H9.0022L17.7261 3.92561C18.1573 3.4943 18.3995 2.90939 18.3995 2.29951C18.3995 1.68963 18.1573 1.10472 17.7261 0.673409Z" fill="white"/>
<path fill-rule="evenodd" clip-rule="evenodd" d="M0 4.59944C0 3.98944 0.242321 3.40443 0.673654 2.97309C1.10499 2.54176 1.69 2.29944 2.3 2.29944H6.9C7.205 2.29944 7.49751 2.4206 7.71317 2.63627C7.92884 2.85193 8.05 3.14444 8.05 3.44944C8.05 3.75444 7.92884 4.04694 7.71317 4.26261C7.49751 4.47828 7.205 4.59944 6.9 4.59944H2.3V16.0994H13.8V11.4994C13.8 11.1944 13.9212 10.9019 14.1368 10.6863C14.3525 10.4706 14.645 10.3494 14.95 10.3494C15.255 10.3494 15.5475 10.4706 15.7632 10.6863C15.9788 10.9019 16.1 11.1944 16.1 11.4994V16.0994C16.1 16.7094 15.8577 17.2944 15.4263 17.7258C14.995 18.1571 14.41 18.3994 13.8 18.3994H2.3C1.69 18.3994 1.10499 18.1571 0.673654 17.7258C0.242321 17.2944 0 16.7094 0 16.0994V4.59944Z" fill="#FAFAFA"/>
</svg>
