<svg width="125" height="125" viewBox="0 0 125 125" fill="none" xmlns="http://www.w3.org/2000/svg">
<path d="M64.8282 21.3854C64.1053 21.0242 63.3082 20.8361 62.5 20.8361C61.6919 20.8361 60.8948 21.0242 60.1719 21.3854L14.4271 44.2552L62.448 67.1198L109.375 43.6563L64.8282 21.3854Z" fill="#63BFA3"/>
<path d="M26.0417 89.6979V61.3229L60.2604 77.6198C60.9753 77.9596 61.7582 78.132 62.5497 78.1238C63.3412 78.1157 64.1204 77.9273 64.8281 77.5729L98.9584 60.5104V89.6979C98.9584 91.1875 98.3177 92.6042 97.2083 93.5938L97.1927 93.6094L97.1719 93.625L97.1198 93.6771L97.0573 93.7292L96.9636 93.8021L96.4584 94.2084C96.0417 94.5417 95.4514 94.9653 94.6875 95.4792C92.5813 96.867 90.3616 98.0744 88.0521 99.0886C82.2448 101.667 73.7136 104.167 62.5 104.167C51.2865 104.167 42.7604 101.667 36.9479 99.0886C34.6384 98.0744 32.4188 96.867 30.3125 95.4792C29.473 94.9164 28.6613 94.3133 27.8802 93.6719L27.8281 93.625L27.8073 93.6042L27.7969 93.599L27.849 93.5365L27.7917 93.5938C27.2412 93.1049 26.8007 92.505 26.499 91.8335C26.1974 91.1619 26.0415 90.4341 26.0417 89.6979ZM10.4167 53.8854L20.8334 58.8438V88.5417C20.8334 89.923 20.2846 91.2478 19.3079 92.2245C18.3311 93.2013 17.0064 93.75 15.625 93.75C14.2437 93.75 12.9189 93.2013 11.9422 92.2245C10.9654 91.2478 10.4167 89.923 10.4167 88.5417V53.8854Z" fill="#63BFA3"/>
</svg>
