<svg width="46" height="39" viewBox="0 0 46 39" fill="none" xmlns="http://www.w3.org/2000/svg">
<rect x="46" y="39" width="46" height="39" rx="6" transform="rotate(180 46 39)" fill="#D9D9D9"/>
<path d="M24.9167 13L32.5833 19.5M32.5833 19.5L24.9167 26M32.5833 19.5H5.75M15.3333 13V11.375C15.3333 10.0821 15.9391 8.8421 17.0175 7.92786C18.0958 7.01362 19.5583 6.5 21.0833 6.5H34.5C36.025 6.5 37.4875 7.01362 38.5659 7.92786C39.6442 8.8421 40.25 10.0821 40.25 11.375V27.625C40.25 28.9179 39.6442 30.1579 38.5659 31.0721C37.4875 31.9864 36.025 32.5 34.5 32.5H21.0833C19.5583 32.5 18.0958 31.9864 17.0175 31.0721C15.9391 30.1579 15.3333 28.9179 15.3333 27.625V26" stroke="#D22424" stroke-width="3" stroke-linecap="round" stroke-linejoin="round"/>
</svg>
