<svg width="52" height="53" viewBox="0 0 52 53" fill="none" xmlns="http://www.w3.org/2000/svg">
<path fill-rule="evenodd" clip-rule="evenodd" d="M51.8281 26.5192C51.8047 33.5268 49.0521 40.2372 44.1758 45.1741C39.2994 50.111 32.6988 52.8701 25.826 52.8444C18.9532 52.8187 12.3711 50.0103 7.52784 45.037C2.68456 40.0637 -0.023232 33.3329 0.000149624 26.3254C0.0235313 19.3178 2.77617 12.6074 7.65252 7.67051C12.5289 2.73358 19.1295 -0.0255132 26.0023 0.000196057C32.8751 0.0259053 39.4571 2.83431 44.3004 7.8076C49.1437 12.7809 51.8515 19.5117 51.8281 26.5192ZM32.4257 16.5382C32.4198 18.2901 31.7317 19.9677 30.5126 21.202C29.2935 22.4362 27.6434 23.126 25.9252 23.1195C24.2069 23.1131 22.5614 22.411 21.3506 21.1677C20.1398 19.9244 19.4629 18.2417 19.4687 16.4898C19.4745 14.7379 20.1627 13.0603 21.3818 11.8261C22.6009 10.5918 24.251 9.90206 25.9692 9.90848C27.6874 9.91491 29.3329 10.617 30.5438 11.8603C31.7546 13.1037 32.4315 14.7864 32.4257 16.5382ZM25.9031 29.7251C22.8019 29.7128 19.7626 30.6087 17.1465 32.3062C14.5304 34.0036 12.4475 36.4314 11.1454 39.3008C12.9608 41.4696 15.2147 43.2126 17.7525 44.4101C20.2903 45.6077 23.0519 46.2315 25.848 46.2389C28.6441 46.2525 31.4098 45.6493 33.9556 44.4708C36.5013 43.2922 38.7667 41.5662 40.5966 39.411C39.3136 36.5319 37.2469 34.0886 34.6423 32.3716C32.0376 30.6546 29.0044 29.736 25.9031 29.7251Z" fill="#00008B"/>
</svg>
