<svg width="27" height="26" viewBox="0 0 27 26" fill="none" xmlns="http://www.w3.org/2000/svg">
<path d="M21.5 8.87037V12.5556M21.5 12.5556V16.2407M21.5 12.5556H25.5M21.5 12.5556H17.5M14.8333 6.41358C14.8333 7.71674 14.2714 8.96653 13.2712 9.88801C12.271 10.8095 10.9145 11.3272 9.5 11.3272C8.08551 11.3272 6.72896 10.8095 5.72876 9.88801C4.72857 8.96653 4.16667 7.71674 4.16667 6.41358C4.16667 5.11042 4.72857 3.86063 5.72876 2.93915C6.72896 2.01768 8.08551 1.5 9.5 1.5C10.9145 1.5 12.271 2.01768 13.2712 2.93915C14.2714 3.86063 14.8333 5.11042 14.8333 6.41358ZM1.5 22.3827C1.5 20.428 2.34286 18.5533 3.84315 17.1711C5.34344 15.7889 7.37827 15.0123 9.5 15.0123C11.6217 15.0123 13.6566 15.7889 15.1569 17.1711C16.6571 18.5533 17.5 20.428 17.5 22.3827V23.6111H1.5V22.3827Z" stroke="#292626" stroke-width="3" stroke-linecap="round" stroke-linejoin="round"/>
</svg>
