<svg width="27" height="26" viewBox="0 0 27 26" fill="none" xmlns="http://www.w3.org/2000/svg">
<path d="M11.2667 3.1178C11.8347 0.960735 15.1653 0.960735 15.7333 3.1178C15.8186 3.44185 15.9856 3.74278 16.2209 3.9961C16.4563 4.24942 16.7532 4.44797 17.0875 4.57559C17.4219 4.70321 17.7842 4.75629 18.145 4.73052C18.5059 4.70474 18.855 4.60084 19.164 4.42727C21.2213 3.27257 23.5773 5.44192 22.324 7.33856C22.1359 7.62313 22.0233 7.94457 21.9954 8.27678C21.9674 8.60898 22.025 8.94256 22.1634 9.25041C22.3017 9.55826 22.517 9.83168 22.7916 10.0485C23.0663 10.2652 23.3926 10.4193 23.744 10.498C26.0853 11.0213 26.0853 14.0898 23.744 14.6131C23.3923 14.6916 23.0656 14.8456 22.7907 15.0624C22.5157 15.2792 22.3002 15.5527 22.1617 15.8607C22.0232 16.1688 21.9655 16.5026 21.9935 16.835C22.0215 17.1674 22.1343 17.4891 22.3227 17.7738C23.576 19.6692 21.2213 21.8398 19.1627 20.6851C18.8538 20.5117 18.5049 20.408 18.1443 20.3823C17.7837 20.3566 17.4216 20.4096 17.0875 20.5371C16.7533 20.6646 16.4566 20.8629 16.2213 21.1159C15.986 21.3689 15.8188 21.6696 15.7333 21.9933C15.1653 24.1504 11.8347 24.1504 11.2667 21.9933C11.1814 21.6693 11.0144 21.3683 10.7791 21.115C10.5437 20.8617 10.2468 20.6631 9.91246 20.5355C9.57811 20.4079 9.21578 20.3548 8.85495 20.3806C8.49413 20.4064 8.145 20.5103 7.836 20.6838C5.77867 21.8385 3.42267 19.6692 4.676 17.7725C4.86414 17.488 4.97673 17.1665 5.00465 16.8343C5.03256 16.5021 4.97499 16.1685 4.83663 15.8607C4.69827 15.5529 4.48301 15.2794 4.20836 15.0626C3.93371 14.8459 3.60742 14.6918 3.256 14.6131C0.914667 14.0898 0.914667 11.0213 3.256 10.498C3.60773 10.4195 3.93437 10.2656 4.20933 10.0488C4.48429 9.83196 4.69981 9.55841 4.83833 9.25037C4.97685 8.94234 5.03447 8.60852 5.00649 8.27609C4.97852 7.94366 4.86574 7.62202 4.67733 7.33733C3.424 5.44192 5.77867 3.27135 7.83733 4.42604C9.16533 5.1729 10.8987 4.51202 11.2667 3.1178Z" stroke="#292626" stroke-width="3" stroke-linecap="round" stroke-linejoin="round"/>
<path d="M16.75 12.2101C16.75 13.0959 16.3681 13.9453 15.6883 14.5716C15.0084 15.198 14.0864 15.5498 13.125 15.5498C12.1636 15.5498 11.2416 15.198 10.5617 14.5716C9.88192 13.9453 9.5 13.0959 9.5 12.2101C9.5 11.3244 9.88192 10.4749 10.5617 9.8486C11.2416 9.22228 12.1636 8.87042 13.125 8.87042C14.0864 8.87042 15.0084 9.22228 15.6883 9.8486C16.3681 10.4749 16.75 11.3244 16.75 12.2101Z" stroke="#292626" stroke-linecap="round" stroke-linejoin="round"/>
</svg>
