<svg width="108" height="91" viewBox="0 0 108 91" fill="none" xmlns="http://www.w3.org/2000/svg">
<path d="M72 18.2C72 23.0269 70.1036 27.6562 66.7279 31.0693C63.3523 34.4825 58.7739 36.4 54 36.4C49.2261 36.4 44.6477 34.4825 41.2721 31.0693C37.8964 27.6562 36 23.0269 36 18.2C36 13.3731 37.8964 8.74382 41.2721 5.33066C44.6477 1.9175 49.2261 0 54 0C58.7739 0 63.3523 1.9175 66.7279 5.33066C70.1036 8.74382 72 13.3731 72 18.2ZM102 30.3333C102 33.5513 100.736 36.6375 98.4853 38.9129C96.2348 41.1883 93.1826 42.4667 90 42.4667C86.8174 42.4667 83.7652 41.1883 81.5147 38.9129C79.2643 36.6375 78 33.5513 78 30.3333C78 27.1154 79.2643 24.0292 81.5147 21.7538C83.7652 19.4783 86.8174 18.2 90 18.2C93.1826 18.2 96.2348 19.4783 98.4853 21.7538C100.736 24.0292 102 27.1154 102 30.3333ZM78 72.8C78 66.3641 75.4714 60.1918 70.9706 55.6409C66.4697 51.09 60.3652 48.5333 54 48.5333C47.6348 48.5333 41.5303 51.09 37.0294 55.6409C32.5286 60.1918 30 66.3641 30 72.8V91H78V72.8ZM30 30.3333C30 33.5513 28.7357 36.6375 26.4853 38.9129C24.2348 41.1883 21.1826 42.4667 18 42.4667C14.8174 42.4667 11.7652 41.1883 9.51472 38.9129C7.26428 36.6375 6 33.5513 6 30.3333C6 27.1154 7.26428 24.0292 9.51472 21.7538C11.7652 19.4783 14.8174 18.2 18 18.2C21.1826 18.2 24.2348 19.4783 26.4853 21.7538C28.7357 24.0292 30 27.1154 30 30.3333ZM90 91V72.8C90.0087 66.6319 88.4598 60.5637 85.5 55.1703C88.1601 54.482 90.9405 54.417 93.6292 54.9805C96.3178 55.5439 98.8437 56.7209 101.014 58.4215C103.185 60.1221 104.942 62.3014 106.153 64.7933C107.363 67.2851 107.995 70.0237 108 72.8V91H90ZM22.5 55.1703C19.5405 60.5638 17.9916 66.632 18 72.8V91H1.59432e-06V72.8C-0.00115481 70.0217 0.62678 67.28 1.83568 64.7851C3.04458 62.2901 4.80236 60.1081 6.9743 58.4063C9.14624 56.7045 11.6747 55.5281 14.3659 54.9671C17.057 54.4062 19.8395 54.4757 22.5 55.1703Z" fill="#E27EE4"/>
</svg>
